<?xml version="1.0" encoding="UTF-8" standalone="no"?>
<!-- Created with Inkscape (http://www.inkscape.org/) -->

<svg
   width="133.33803mm"
   height="39.59967mm"
   viewBox="0 0 133.33803 39.59967"
   version="1.1"
   id="svg831"
   inkscape:version="1.2 (dc2aedaf03, 2022-05-15)"
   sodipodi:docname="eScience_logo.svg"
   xmlns:inkscape="http://www.inkscape.org/namespaces/inkscape"
   xmlns:sodipodi="http://sodipodi.sourceforge.net/DTD/sodipodi-0.dtd"
   xmlns="http://www.w3.org/2000/svg"
   xmlns:svg="http://www.w3.org/2000/svg">
  <sodipodi:namedview
     id="namedview833"
     pagecolor="#ffffff"
     bordercolor="#000000"
     borderopacity="0.25"
     inkscape:showpageshadow="2"
     inkscape:pageopacity="0.0"
     inkscape:pagecheckerboard="0"
     inkscape:deskcolor="#d1d1d1"
     inkscape:document-units="mm"
     showgrid="false"
     inkscape:zoom="0.85523954"
     inkscape:cx="-60.801679"
     inkscape:cy="28.646945"
     inkscape:window-width="1920"
     inkscape:window-height="1111"
     inkscape:window-x="-9"
     inkscape:window-y="-9"
     inkscape:window-maximized="1"
     inkscape:current-layer="layer1" />
  <defs
     id="defs828" />
  <g
     inkscape:label="Layer 1"
     inkscape:groupmode="layer"
     id="layer1"
     transform="translate(-42.286691,-17.392429)">
    <g
       id="g200"
       transform="matrix(0.35277777,0,0,-0.35277777,99.310706,27.444099)">
      <path
         d="m 0,0 c 0,-1.607 1.426,-2.833 3.182,-2.833 1.67,0 3.322,1.175 3.322,2.833 V 6.31 L 7.375,7.155 H 4.695 L 5.58,6.31 V 0 C 5.58,-1.127 4.643,-2.022 3.46,-2.022 2.261,-2.022 1.199,-1.144 1.199,0 V 6.31 L 2.086,7.155 H -0.889 L 0,6.31 Z m 11.547,-1.772 v 7.319 l 5.504,-8.165 h 0.355 V 6.31 l 0.889,0.845 h -2.68 L 16.504,6.31 V 0.098 L 11.879,7.155 H 9.754 L 10.625,6.31 V -1.772 L 9.754,-2.618 h 2.68 z m 9.546,8.927 0.819,-0.779 V -1.84 l -0.819,-0.778 h 2.766 l -0.816,0.778 v 8.216 l 0.816,0.779 z m 7.966,0 h -2.905 l 0.836,-0.779 2.887,-8.994 h 0.519 l 2.975,8.994 0.836,0.779 h -2.47 l 0.798,-0.762 -2.174,-6.758 -2.103,6.758 z m 13.304,-9.773 v 1.789 l -1.095,-1.059 h -3.114 v 4.106 h 2.314 L 41.285,1.44 V 3.726 L 40.468,2.947 h -2.314 v 3.479 h 3.114 l 1.095,-1.044 v 1.773 h -6.14 l 0.8,-0.779 V -1.84 l -0.8,-0.778 z m 4.607,0.778 v 3.777 h 1.548 l 2.488,-4.555 h 1.704 l -0.8,0.778 -2.294,4.009 c 1.148,0.331 1.928,1.359 1.928,2.287 0,1.656 -1.616,2.699 -3.321,2.699 H 45.041 L 45.84,6.376 V -1.84 l -0.799,-0.778 h 2.748 z m 0,8.266 h 1.253 c 1.095,0 1.966,-0.894 1.966,-1.953 0,-1.012 -0.887,-1.806 -1.966,-1.806 H 46.97 Z M 60.153,0.098 c 0,0.962 -0.468,1.557 -0.956,1.873 l -2.086,1.441 c -0.748,0.512 -1.131,1.175 -1.131,1.673 0,1.027 0.921,1.391 1.478,1.391 0.295,0 0.503,-0.117 0.659,-0.117 l 0.906,-0.926 0.956,1.358 -2.035,0.364 c -0.138,0.034 -0.223,0.05 -0.486,0.05 -1.792,0 -2.608,-1.457 -2.608,-2.403 0,-0.745 0.399,-1.589 1.321,-2.235 l 2.104,-1.441 c 0.574,-0.381 0.73,-0.944 0.73,-1.426 0,-0.827 -0.538,-1.722 -1.703,-1.722 -0.278,0 -0.522,0.049 -0.713,0.134 l -0.974,1.092 -0.888,-1.524 1.966,-0.365 c 0,0 0.331,-0.065 0.609,-0.065 1.234,0 2.851,0.993 2.851,2.848 m 2.973,7.057 0.819,-0.779 V -1.84 l -0.819,-0.778 h 2.765 l -0.815,0.778 v 8.216 l 0.815,0.779 z M 72.43,-1.84 v 8.266 h 1.951 L 75.474,5.382 V 7.155 H 68.256 V 5.382 L 69.37,6.426 H 71.3 V -1.84 l -0.8,-0.778 h 2.749 z m 5.409,8.216 2.592,-4.456 v -3.76 l -0.818,-0.778 h 2.763 l -0.814,0.778 v 3.76 l 2.643,4.439 0.851,0.796 h -2.538 l 0.8,-0.762 -2.157,-3.661 -2.052,3.661 0.8,0.762 H 77.005 Z M 94.58,3.569 C 94.203,3.569 93.613,3.406 93.021,3.075 92.022,2.51 90.94,1.23 90.94,-0.695 c 0,-0.964 0.477,-2.036 1.821,-2.036 0.634,0 1.546,0.398 2.151,0.921 0.956,0.825 1.518,2.243 1.518,3.468 0,1.142 -0.637,1.911 -1.85,1.911 m -2.47,-3.934 c 0,2.036 1.083,3.137 1.532,3.316 0.129,0.056 0.333,0.111 0.476,0.111 0.721,0 1.142,-0.524 1.142,-1.583 0.028,-1.789 -0.953,-3.414 -1.559,-3.605 -0.119,-0.041 -0.306,-0.096 -0.449,-0.096 -0.81,0 -1.142,0.825 -1.142,1.857 m 6.502,3.605 -0.39,-0.358 0.043,-0.137 h 1.199 C 99.277,1.506 99.103,0.433 98.828,-1.301 98.439,-3.874 98.106,-4.783 97.833,-5.003 97.744,-5.085 97.6,-5.126 97.469,-5.126 c -0.172,0 -0.448,0.123 -0.634,0.207 -0.175,0.081 -0.317,-0.014 -0.405,-0.099 -0.117,-0.123 -0.245,-0.315 -0.245,-0.466 0,-0.276 0.376,-0.413 0.621,-0.413 0.277,0 0.966,0.219 1.588,0.949 0.493,0.578 1.156,1.912 1.719,5.022 0.102,0.579 0.216,1.156 0.463,2.671 l 1.475,0.137 0.317,0.358 h -1.704 c 0.433,2.546 0.793,3.316 1.415,3.316 0.435,0 0.795,-0.164 1.112,-0.453 0.102,-0.097 0.26,-0.097 0.406,0.013 0.114,0.096 0.289,0.317 0.289,0.509 0.014,0.276 -0.376,0.578 -0.869,0.578 -0.837,0 -1.719,-0.468 -2.326,-1.156 C 100.129,5.401 99.753,4.356 99.55,3.24 Z m 15.204,-5.858 2.35,7.074 2.278,-7.074 h 0.522 l 2.974,8.994 0.833,0.779 h -2.468 l 0.8,-0.762 -2.174,-6.758 -2.104,6.758 0.798,0.762 h -2.904 l 0.819,-0.779 0.206,-0.646 -1.964,-6.095 -2.103,6.758 0.8,0.762 h -2.904 l 0.835,-0.779 2.886,-8.994 z m 10.912,0.763 0.748,2.069 h 3.39 l 0.714,-2.069 -0.8,-0.763 h 2.906 l -0.818,0.795 -3.201,8.978 h -0.521 l -3.253,-8.978 -0.834,-0.795 h 2.469 z m 2.469,6.84 1.409,-4.042 h -2.87 z m 11.481,-4.887 c 0,0.962 -0.471,1.557 -0.956,1.873 l -2.088,1.441 c -0.748,0.512 -1.13,1.175 -1.13,1.673 0,1.027 0.92,1.391 1.476,1.391 0.297,0 0.506,-0.117 0.66,-0.117 l 0.906,-0.926 0.959,1.358 -2.037,0.364 c -0.14,0.034 -0.225,0.05 -0.488,0.05 -1.791,0 -2.608,-1.457 -2.608,-2.403 0,-0.745 0.399,-1.589 1.322,-2.235 L 136.8,1.126 c 0.574,-0.381 0.728,-0.944 0.728,-1.426 0,-0.827 -0.537,-1.722 -1.702,-1.722 -0.279,0 -0.522,0.049 -0.716,0.134 l -0.972,1.092 -0.888,-1.524 1.967,-0.365 c 0,0 0.33,-0.065 0.609,-0.065 1.235,0 2.852,0.993 2.852,2.848 m 4.627,2.187 h 4.31 V -1.84 l -0.819,-0.778 h 2.766 l -0.816,0.778 v 8.216 l 0.816,0.779 h -2.766 l 0.819,-0.779 V 3.014 h -4.31 v 3.362 l 0.814,0.779 h -2.746 l 0.8,-0.779 V -1.84 l -0.8,-0.778 h 2.746 l -0.814,0.778 z m 9.11,4.87 0.817,-0.779 V -1.84 l -0.817,-0.778 h 2.765 l -0.818,0.778 v 8.216 l 0.818,0.779 z m 7.356,-8.927 v 7.319 l 5.4,-8.17 0.462,0.005 V 6.31 l 0.885,0.845 h -2.677 L 164.729,6.31 V 0.098 l -4.627,7.057 h -2.123 l 0.87,-0.845 v -8.082 l -0.87,-0.846 h 2.679 z m 15.215,3.593 v -3.147 c -0.245,-0.233 -0.732,-0.696 -1.69,-0.696 -2.275,0 -3.423,2.187 -3.423,4.29 0,2.12 1.442,4.291 3.423,4.291 0.524,0 0.907,-0.116 1.254,-0.465 l 1.131,-1.059 v 1.69 c -0.61,0.298 -1.217,0.563 -2.385,0.563 -2.798,0 -4.764,-2.385 -4.764,-5.02 0,-2.584 1.966,-5.018 4.764,-5.018 1.584,0 2.263,0.364 2.821,0.711 v 3.86 l 0.799,0.777 h -2.747 z m 7.596,-3.661 v 8.266 h 1.947 l 1.095,-1.044 v 1.773 h -7.216 V 5.382 l 1.114,1.044 h 1.928 V -1.84 l -0.8,-0.778 h 2.748 z m 4.641,4.108 c 0,-2.484 1.476,-5.101 4.101,-5.101 2.646,0 4.122,2.617 4.122,5.101 0,2.485 -1.476,5.102 -4.122,5.102 -2.625,0 -4.101,-2.617 -4.101,-5.102 m 4.101,-4.356 c -2.05,0 -2.762,2.336 -2.762,4.356 0,2.022 0.712,4.357 2.762,4.357 2.071,0 2.785,-2.335 2.785,-4.357 0,-2.02 -0.714,-4.356 -2.785,-4.356 m 7.93,0.316 v 7.319 l 5.336,-8.165 h 0.524 V 6.31 l 0.887,0.845 h -2.682 L 204.21,6.31 V 0.098 l -4.625,7.057 h -2.125 l 0.87,-0.845 v -8.082 l -0.87,-0.846 h 2.679 l -0.885,0.846"
         style="fill:#979899;fill-opacity:1;fill-rule:nonzero;stroke:none"
         id="path202" />
    </g>
    <g
       id="g204"
       transform="matrix(0.35277777,0,0,-0.35277777,79.409076,38.139581)">
      <path
         d="m 0,0 c -0.574,2.867 -2.691,4.72 -5.383,4.72 -2.646,0 -4.939,-1.986 -5.381,-4.72 z m -10.984,-2.647 c 0.175,-3.749 2.513,-6.176 5.822,-6.176 2.426,0 3.883,1.014 5.646,3.838 l 2.647,-1.5 c -2.029,-3.574 -4.719,-5.205 -8.469,-5.205 -5.295,0 -8.955,3.969 -8.955,9.705 0,5.602 3.705,9.528 8.91,9.528 5.205,0 8.692,-3.838 8.692,-9.572 v -0.618 z"
         style="fill:#36236a;fill-opacity:1;fill-rule:nonzero;stroke:none"
         id="path206" />
    </g>
    <g
       id="g208"
       transform="matrix(0.35277777,0,0,-0.35277777,86.763011,33.735715)">
      <path
         d="m 0,0 c -1.5,2.382 -2.779,3.176 -5.072,3.176 -2.735,0 -4.854,-1.941 -4.854,-4.543 0,-1.279 0.619,-2.339 1.854,-3.176 0.705,-0.442 1.455,-0.883 2.293,-1.236 L -4.852,-6.22 -3.926,-6.617 -3,-7.014 c 4.721,-2.073 6.662,-4.411 6.662,-8.073 0,-5.072 -4.058,-9.087 -9.264,-9.087 -4.72,0 -7.984,2.736 -9.13,7.587 l 3.175,0.883 c 0.793,-3.529 2.823,-5.382 5.911,-5.382 3.396,0 6,2.515 6,5.778 0,1.809 -0.795,3.177 -2.426,4.192 -0.75,0.485 -1.588,0.926 -2.559,1.323 l -0.883,0.441 -0.882,0.397 -0.881,0.397 c -4.237,1.897 -5.957,3.97 -5.957,7.279 0,4.279 3.574,7.543 8.25,7.543 3.308,0 5.822,-1.544 7.588,-4.588 z"
         style="fill:#36236a;fill-opacity:1;fill-rule:nonzero;stroke:none"
         id="path210" />
    </g>
    <g
       id="g212"
       transform="matrix(0.35277777,0,0,-0.35277777,94.740446,37.548396)">
      <path
         d="m 0,0 c -2.029,2.206 -3.529,3 -5.779,3 -3.662,0 -6.44,-2.912 -6.44,-6.75 0,-3.793 2.778,-6.749 6.307,-6.749 2.428,0 3.926,0.794 6.045,3.177 v -4.147 c -2.25,-1.412 -3.75,-1.897 -5.867,-1.897 -5.471,0 -9.705,4.19 -9.705,9.572 0,5.47 4.234,9.661 9.793,9.661 2.117,0 3.75,-0.485 5.646,-1.721 z"
         style="fill:#36236a;fill-opacity:1;fill-rule:nonzero;stroke:none"
         id="path214" />
    </g>
    <path
       d="m 97.368922,42.07711 h -1.105253 v -6.458303 h 1.105253 z m 0.248709,-8.901642 c 0,0.435681 -0.357364,0.79375 -0.79375,0.79375 -0.435328,0 -0.79375,-0.358069 -0.79375,-0.79375 0,-0.43568 0.358422,-0.79375 0.79375,-0.79375 0.436386,0 0.79375,0.35807 0.79375,0.79375"
       style="fill:#36236a;fill-opacity:1;fill-rule:nonzero;stroke:none;stroke-width:0.352778"
       id="path216" />
    <g
       id="g218"
       transform="matrix(0.35277777,0,0,-0.35277777,103.80379,38.139581)">
      <path
         d="m 0,0 c -0.574,2.867 -2.691,4.72 -5.383,4.72 -2.646,0 -4.939,-1.986 -5.381,-4.72 z m -10.984,-2.647 c 0.175,-3.749 2.513,-6.176 5.822,-6.176 2.426,0 3.883,1.014 5.646,3.838 l 2.647,-1.5 c -2.029,-3.574 -4.719,-5.205 -8.469,-5.205 -5.295,0 -8.955,3.969 -8.955,9.705 0,5.602 3.705,9.528 8.91,9.528 5.205,0 8.692,-3.838 8.692,-9.572 v -0.618 z"
         style="fill:#36236a;fill-opacity:1;fill-rule:nonzero;stroke:none"
         id="path220" />
    </g>
    <g
       id="g222"
       transform="matrix(0.35277777,0,0,-0.35277777,107.49007,35.618631)">
      <path
         d="m 0,0 v -2.206 c 1.588,1.941 3,2.647 5.295,2.647 2.205,0 4.234,-0.97 5.248,-2.515 0.707,-1.146 1.016,-2.514 1.016,-4.896 V -18.307 H 8.426 V -7.5 c 0,3.75 -1.014,5.118 -3.881,5.118 C 1.367,-2.382 0,-4.412 0,-9.175 v -9.132 H -3.131 V 0 Z"
         style="fill:#36236a;fill-opacity:1;fill-rule:nonzero;stroke:none"
         id="path224" />
    </g>
    <g
       id="g226"
       transform="matrix(0.35277777,0,0,-0.35277777,118.39447,37.548396)">
      <path
         d="m 0,0 c -2.029,2.206 -3.529,3 -5.779,3 -3.662,0 -6.44,-2.912 -6.44,-6.75 0,-3.793 2.778,-6.749 6.307,-6.749 2.428,0 3.926,0.794 6.045,3.177 v -4.147 c -2.25,-1.412 -3.75,-1.897 -5.867,-1.897 -5.471,0 -9.705,4.19 -9.705,9.572 0,5.47 4.234,9.661 9.793,9.661 2.117,0 3.75,-0.485 5.646,-1.721 z"
         style="fill:#36236a;fill-opacity:1;fill-rule:nonzero;stroke:none"
         id="path228" />
    </g>
    <g
       id="g230"
       transform="matrix(0.35277777,0,0,-0.35277777,124.51502,38.139581)">
      <path
         d="m 0,0 c -0.572,2.867 -2.691,4.72 -5.381,4.72 -2.648,0 -4.941,-1.986 -5.383,-4.72 z m -10.984,-2.647 c 0.177,-3.749 2.515,-6.176 5.824,-6.176 2.426,0 3.881,1.014 5.646,3.838 l 2.647,-1.5 c -2.029,-3.574 -4.721,-5.205 -8.471,-5.205 -5.293,0 -8.955,3.969 -8.955,9.705 0,5.602 3.705,9.528 8.912,9.528 5.205,0 8.69,-3.838 8.69,-9.572 v -0.618 z"
         style="fill:#36236a;fill-opacity:1;fill-rule:nonzero;stroke:none"
         id="path232" />
    </g>
    <path
       d="m 132.483,42.07711 h -1.16734 V 31.697329 h 1.16734 z"
       style="fill:#36236a;fill-opacity:1;fill-rule:nonzero;stroke:none;stroke-width:0.352778"
       id="path234" />
    <g
       id="g236"
       transform="matrix(0.35277777,0,0,-0.35277777,135.70538,35.618631)">
      <path
         d="m 0,0 v -2.206 c 1.588,1.941 3,2.647 5.293,2.647 2.205,0 4.234,-0.97 5.25,-2.515 0.705,-1.146 1.014,-2.514 1.014,-4.896 V -18.307 H 8.426 V -7.5 c 0,3.75 -1.016,5.118 -3.883,5.118 C 1.367,-2.382 0,-4.412 0,-9.175 v -9.132 H -3.133 V 0 Z"
         style="fill:#36236a;fill-opacity:1;fill-rule:nonzero;stroke:none"
         id="path238" />
    </g>
    <g
       id="g240"
       transform="matrix(0.35277777,0,0,-0.35277777,144.16033,37.128273)">
      <path
         d="m 0,0 c -0.662,1.235 -1.457,1.809 -2.516,1.809 -1.234,0 -2.25,-0.882 -2.25,-1.985 0,-1.103 0.575,-1.677 2.957,-2.648 4.411,-1.851 5.514,-2.999 5.514,-5.778 0,-3.353 -2.734,-5.955 -6.221,-5.955 -3.088,0 -5.248,1.544 -6.439,4.676 l 2.779,1.147 c 1.059,-2.25 1.94,-2.956 3.705,-2.956 1.676,0 2.955,1.235 2.955,2.868 0,1.411 -0.662,2.072 -2.955,3.043 -4.234,1.854 -5.293,2.912 -5.293,5.338 0,2.956 2.293,5.117 5.469,5.117 2.117,0 3.795,-1.103 4.897,-3.308 z"
         style="fill:#36236a;fill-opacity:1;fill-rule:nonzero;stroke:none"
         id="path242" />
    </g>
    <g
       id="g244"
       transform="matrix(0.35277777,0,0,-0.35277777,147.86383,42.076969)">
      <path
         d="m 0,0 h -3.133 v 15.396 h -1.896 v 2.911 h 1.896 v 6.617 H 0 V 18.307 H 3.264 V 15.396 H 0 Z"
         style="fill:#36236a;fill-opacity:1;fill-rule:nonzero;stroke:none"
         id="path246" />
    </g>
    <path
       d="m 151.01195,42.07711 h -1.10526 v -6.458303 h 1.10526 z m 0.2487,-8.901642 c 0,0.435681 -0.35771,0.79375 -0.79375,0.79375 -0.43532,0 -0.79375,-0.358069 -0.79375,-0.79375 0,-0.43568 0.35843,-0.79375 0.79375,-0.79375 0.43604,0 0.79375,0.35807 0.79375,0.79375"
       style="fill:#36236a;fill-opacity:1;fill-rule:nonzero;stroke:none;stroke-width:0.352778"
       id="path248" />
    <g
       id="g250"
       transform="matrix(0.35277777,0,0,-0.35277777,153.99196,42.076969)">
      <path
         d="m 0,0 h -3.133 v 15.396 h -1.896 v 2.911 h 1.896 v 6.617 H 0 V 18.307 H 3.264 V 15.396 H 0 Z"
         style="fill:#36236a;fill-opacity:1;fill-rule:nonzero;stroke:none"
         id="path252" />
    </g>
    <g
       id="g254"
       transform="matrix(0.35277777,0,0,-0.35277777,157.13938,39.384639)">
      <path
         d="m 0,0 c 0,-3.705 1.236,-5.294 4.146,-5.294 2.868,0 4.104,1.589 4.104,5.294 v 10.675 h 3.131 V -0.354 c 0,-2.69 -0.44,-4.146 -1.676,-5.513 -1.322,-1.5 -3.309,-2.294 -5.559,-2.294 -2.292,0 -4.279,0.794 -5.601,2.294 -1.236,1.367 -1.676,2.823 -1.676,5.513 V 10.675 H 0 Z"
         style="fill:#36236a;fill-opacity:1;fill-rule:nonzero;stroke:none"
         id="path256" />
    </g>
    <g
       id="g258"
       transform="matrix(0.35277777,0,0,-0.35277777,164.10674,42.076969)">
      <path
         d="m 0,0 h -3.131 v 15.396 h -1.898 v 2.911 h 1.898 v 6.617 H 0 V 18.307 H 3.266 V 15.396 H 0 Z"
         style="fill:#36236a;fill-opacity:1;fill-rule:nonzero;stroke:none"
         id="path260" />
    </g>
    <g
       id="g262"
       transform="matrix(0.35277777,0,0,-0.35277777,170.69723,38.139581)">
      <path
         d="m 0,0 c -0.574,2.867 -2.691,4.72 -5.383,4.72 -2.646,0 -4.939,-1.986 -5.381,-4.72 z m -10.984,-2.647 c 0.175,-3.749 2.513,-6.176 5.822,-6.176 2.426,0 3.883,1.014 5.646,3.838 l 2.647,-1.5 c -2.029,-3.574 -4.719,-5.205 -8.469,-5.205 -5.295,0 -8.955,3.969 -8.955,9.705 0,5.602 3.705,9.528 8.91,9.528 5.205,0 8.692,-3.838 8.692,-9.572 v -0.618 z"
         style="fill:#36236a;fill-opacity:1;fill-rule:nonzero;stroke:none"
         id="path264" />
    </g>
    <g
       id="g266"
       transform="matrix(0.35277777,0,0,-0.35277777,75.38868,47.124407)">
      <path
         d="m 0,0 -1.34,-3.138 h 2.644 z m -1.704,-3.948 -0.94,-2.221 H -3.596 L 0.012,2.044 3.536,-6.169 H 2.573 l -0.928,2.221 z"
         style="fill:#979899;fill-opacity:1;fill-rule:nonzero;stroke:none"
         id="path268" />
    </g>
    <g
       id="g270"
       transform="matrix(0.35277777,0,0,-0.35277777,77.602149,49.014732)">
      <path
         d="M 0,0 C 1.997,0 3.313,1.233 3.313,3.103 3.313,4.993 2.009,6.216 0,6.216 H -0.764 V 0 Z m -1.645,7.026 h 1.61 c 1.268,0 2.127,-0.27 2.879,-0.904 C 3.725,5.394 4.194,4.335 4.194,3.091 4.194,1.88 3.713,0.835 2.82,0.095 2.045,-0.552 1.222,-0.811 -0.047,-0.811 h -1.598 z"
         style="fill:#979899;fill-opacity:1;fill-rule:nonzero;stroke:none"
         id="path272" />
    </g>
    <g
       id="g274"
       transform="matrix(0.35277777,0,0,-0.35277777,80.350288,48.641598)">
      <path
         d="m 0,0 2.221,5.969 h 0.951 l -3.184,-8.295 -3.173,8.295 h 0.964 z"
         style="fill:#979899;fill-opacity:1;fill-rule:nonzero;stroke:none"
         id="path276" />
    </g>
    <g
       id="g278"
       transform="matrix(0.35277777,0,0,-0.35277777,82.596141,47.124407)">
      <path
         d="m 0,0 -1.34,-3.138 h 2.644 z m -1.704,-3.948 -0.94,-2.221 H -3.596 L 0.012,2.044 3.536,-6.169 H 2.573 l -0.928,2.221 z"
         style="fill:#979899;fill-opacity:1;fill-rule:nonzero;stroke:none"
         id="path280" />
    </g>
    <g
       id="g282"
       transform="matrix(0.35277777,0,0,-0.35277777,84.229467,46.420227)">
      <path
         d="m 0,0 6.098,-6.402 v 6.074 h 0.881 v -8.19 L 0.881,-2.126 V -8.165 H 0 Z"
         style="fill:#979899;fill-opacity:1;fill-rule:nonzero;stroke:none"
         id="path284" />
    </g>
    <g
       id="g286"
       transform="matrix(0.35277777,0,0,-0.35277777,89.538702,47.14508)">
      <path
         d="m 0,0 c -0.764,0.728 -1.48,1.033 -2.386,1.033 -1.703,0 -3.148,-1.48 -3.148,-3.23 0,-1.787 1.422,-3.232 3.172,-3.232 0.87,0 1.61,0.318 2.362,1.023 v -1.082 c -0.764,-0.516 -1.504,-0.764 -2.339,-0.764 -2.244,0 -4.076,1.822 -4.076,4.031 0,2.233 1.844,4.076 4.088,4.076 0.882,0 1.527,-0.21 2.327,-0.775 z"
         style="fill:#979899;fill-opacity:1;fill-rule:nonzero;stroke:none"
         id="path288" />
    </g>
    <path
       d="m 90.417436,49.300587 h -0.310797 v -2.764719 h 0.310797 z"
       style="fill:#979899;fill-opacity:1;fill-rule:nonzero;stroke:none;stroke-width:0.352778"
       id="path290" />
    <g
       id="g292"
       transform="matrix(0.35277777,0,0,-0.35277777,91.13481,46.420227)">
      <path
         d="m 0,0 6.098,-6.402 v 6.074 h 0.881 v -8.19 L 0.881,-2.126 V -8.165 H 0 Z"
         style="fill:#979899;fill-opacity:1;fill-rule:nonzero;stroke:none"
         id="path294" />
    </g>
    <g
       id="g296"
       transform="matrix(0.35277777,0,0,-0.35277777,96.913274,47.911948)">
      <path
         d="m 0,0 v -0.2 c 0,-1.116 -0.199,-1.81 -0.729,-2.468 -0.705,-0.881 -1.821,-1.41 -2.984,-1.41 -2.197,0 -4.017,1.834 -4.017,4.043 0,2.267 1.832,4.064 4.135,4.064 1.281,0 2.256,-0.516 3.254,-1.703 L -0.987,1.738 c -0.764,1.011 -1.575,1.469 -2.608,1.469 -1.821,0 -3.255,-1.434 -3.255,-3.254 0,-1.764 1.446,-3.208 3.184,-3.208 0.94,0 1.939,0.552 2.409,1.339 0.199,0.317 0.282,0.623 0.318,1.105 H -3.267 V 0 Z"
         style="fill:#979899;fill-opacity:1;fill-rule:nonzero;stroke:none"
         id="path298" />
    </g>
    <g
       id="g300"
       transform="matrix(0.35277777,0,0,-0.35277777,99.097806,49.014732)">
      <path
         d="M 0,0 C 1.997,0 3.313,1.233 3.313,3.103 3.313,4.993 2.009,6.216 0,6.216 H -0.764 V 0 Z m -1.645,7.026 h 1.61 c 1.268,0 2.127,-0.27 2.879,-0.904 C 3.725,5.394 4.194,4.335 4.194,3.091 4.194,1.88 3.713,0.835 2.82,0.095 2.045,-0.552 1.222,-0.811 -0.047,-0.811 h -1.598 z"
         style="fill:#979899;fill-opacity:1;fill-rule:nonzero;stroke:none"
         id="path302" />
    </g>
    <g
       id="g304"
       transform="matrix(0.35277777,0,0,-0.35277777,101.96172,47.124407)">
      <path
         d="m 0,0 -1.34,-3.138 h 2.644 z m -1.704,-3.948 -0.94,-2.221 H -3.596 L 0.012,2.044 3.536,-6.169 H 2.573 l -0.928,2.221 z"
         style="fill:#979899;fill-opacity:1;fill-rule:nonzero;stroke:none"
         id="path306" />
    </g>
    <g
       id="g308"
       transform="matrix(0.35277777,0,0,-0.35277777,104.09628,49.300658)">
      <path
         d="M 0,0 H -0.882 V 7.026 H -2.773 V 7.837 H 1.903 V 7.026 H 0 Z"
         style="fill:#979899;fill-opacity:1;fill-rule:nonzero;stroke:none"
         id="path310" />
    </g>
    <g
       id="g312"
       transform="matrix(0.35277777,0,0,-0.35277777,105.95319,47.124407)">
      <path
         d="m 0,0 -1.34,-3.138 h 2.644 z m -1.704,-3.948 -0.94,-2.221 H -3.596 L 0.012,2.044 3.536,-6.169 H 2.573 l -0.928,2.221 z"
         style="fill:#979899;fill-opacity:1;fill-rule:nonzero;stroke:none"
         id="path314" />
    </g>
    <path
       d="m 108.17943,48.550582 h -0.75036 v -0.265289 h 0.75036 z"
       style="fill:#979899;fill-opacity:1;fill-rule:nonzero;stroke:none;stroke-width:0.352778"
       id="path316" />
    <path
       d="m 108.85077,49.300587 h -0.3108 v -2.764719 h 0.3108 z"
       style="fill:#979899;fill-opacity:1;fill-rule:nonzero;stroke:none;stroke-width:0.352778"
       id="path318" />
    <g
       id="g320"
       transform="matrix(0.35277777,0,0,-0.35277777,109.56814,46.420227)">
      <path
         d="m 0,0 6.098,-6.402 v 6.074 h 0.881 v -8.19 L 0.881,-2.126 V -8.165 H 0 Z"
         style="fill:#979899;fill-opacity:1;fill-rule:nonzero;stroke:none"
         id="path322" />
    </g>
    <g
       id="g324"
       transform="matrix(0.35277777,0,0,-0.35277777,113.41871,49.300658)">
      <path
         d="M 0,0 H -0.882 V 7.026 H -2.773 V 7.837 H 1.903 V 7.026 H 0 Z"
         style="fill:#979899;fill-opacity:1;fill-rule:nonzero;stroke:none"
         id="path326" />
    </g>
    <g
       id="g328"
       transform="matrix(0.35277777,0,0,-0.35277777,114.81949,46.8219)">
      <path
         d="m 0,0 v -2.338 h 3.09 v -0.81 H 0 v -3.068 h 3.173 v -0.81 H -0.881 V 0.811 H 3.173 V 0 Z"
         style="fill:#979899;fill-opacity:1;fill-rule:nonzero;stroke:none"
         id="path330" />
    </g>
    <g
       id="g332"
       transform="matrix(0.35277777,0,0,-0.35277777,116.50658,46.420227)">
      <path
         d="m 0,0 6.098,-6.402 v 6.074 h 0.881 v -8.19 L 0.881,-2.126 V -8.165 H 0 Z"
         style="fill:#979899;fill-opacity:1;fill-rule:nonzero;stroke:none"
         id="path334" />
    </g>
    <g
       id="g336"
       transform="matrix(0.35277777,0,0,-0.35277777,120.91661,47.078934)">
      <path
         d="m 0,0 c -0.399,0.635 -0.74,0.846 -1.352,0.846 -0.728,0 -1.292,-0.518 -1.292,-1.21 0,-0.341 0.165,-0.623 0.494,-0.847 0.188,-0.117 0.387,-0.234 0.611,-0.328 l 0.247,-0.117 0.246,-0.107 0.247,-0.105 c 1.257,-0.552 1.775,-1.175 1.775,-2.151 0,-1.35 -1.081,-2.42 -2.468,-2.42 -1.257,0 -2.127,0.728 -2.432,2.021 l 0.846,0.234 c 0.211,-0.939 0.752,-1.432 1.574,-1.432 0.904,0 1.598,0.669 1.598,1.539 0,0.481 -0.211,0.846 -0.646,1.116 -0.2,0.129 -0.424,0.246 -0.681,0.353 l -0.236,0.117 -0.235,0.106 -0.234,0.106 c -1.128,0.505 -1.586,1.056 -1.586,1.938 0,1.14 0.951,2.009 2.196,2.009 0.882,0 1.552,-0.411 2.021,-1.222 z"
         style="fill:#979899;fill-opacity:1;fill-rule:nonzero;stroke:none"
         id="path338" />
    </g>
    <path
       d="m 122.1392,49.300587 h -0.3108 v -2.764719 h 0.3108 z"
       style="fill:#979899;fill-opacity:1;fill-rule:nonzero;stroke:none;stroke-width:0.352778"
       id="path340" />
    <g
       id="g342"
       transform="matrix(0.35277777,0,0,-0.35277777,123.64824,48.641598)">
      <path
         d="m 0,0 2.221,5.969 h 0.951 l -3.184,-8.295 -3.173,8.295 h 0.964 z"
         style="fill:#979899;fill-opacity:1;fill-rule:nonzero;stroke:none"
         id="path344" />
    </g>
    <g
       id="g346"
       transform="matrix(0.35277777,0,0,-0.35277777,125.46346,46.8219)">
      <path
         d="m 0,0 v -2.338 h 3.09 v -0.81 H 0 v -3.068 h 3.173 v -0.81 H -0.881 V 0.811 H 3.173 V 0 Z"
         style="fill:#979899;fill-opacity:1;fill-rule:nonzero;stroke:none"
         id="path348" />
    </g>
    <g
       id="g350"
       transform="matrix(0.35277777,0,0,-0.35277777,128.76698,49.014732)">
      <path
         d="M 0,0 C 1.997,0 3.313,1.233 3.313,3.103 3.313,4.993 2.009,6.216 0,6.216 H -0.764 V 0 Z m -1.645,7.026 h 1.61 c 1.268,0 2.127,-0.27 2.879,-0.904 C 3.725,5.394 4.194,4.335 4.194,3.091 4.194,1.88 3.713,0.835 2.82,0.095 2.045,-0.552 1.222,-0.811 -0.047,-0.811 h -1.598 z"
         style="fill:#979899;fill-opacity:1;fill-rule:nonzero;stroke:none"
         id="path352" />
    </g>
    <path
       d="m 131.12128,49.300587 h -0.3108 v -2.764719 h 0.3108 z"
       style="fill:#979899;fill-opacity:1;fill-rule:nonzero;stroke:none;stroke-width:0.352778"
       id="path354" />
    <g
       id="g356"
       transform="matrix(0.35277777,0,0,-0.35277777,133.06953,47.078934)">
      <path
         d="m 0,0 c -0.399,0.635 -0.74,0.846 -1.352,0.846 -0.728,0 -1.292,-0.518 -1.292,-1.21 0,-0.341 0.165,-0.623 0.494,-0.847 0.188,-0.117 0.387,-0.234 0.611,-0.328 l 0.247,-0.117 0.246,-0.107 0.247,-0.105 c 1.257,-0.552 1.775,-1.175 1.775,-2.151 0,-1.35 -1.081,-2.42 -2.468,-2.42 -1.257,0 -2.127,0.728 -2.432,2.021 l 0.846,0.234 c 0.211,-0.939 0.752,-1.432 1.574,-1.432 0.904,0 1.598,0.669 1.598,1.539 0,0.481 -0.211,0.846 -0.646,1.116 -0.2,0.129 -0.424,0.246 -0.681,0.353 l -0.236,0.117 -0.235,0.106 -0.234,0.106 c -1.128,0.505 -1.586,1.056 -1.586,1.938 0,1.14 0.951,2.009 2.196,2.009 0.882,0 1.552,-0.411 2.021,-1.222 z"
         style="fill:#979899;fill-opacity:1;fill-rule:nonzero;stroke:none"
         id="path358" />
    </g>
    <g
       id="g360"
       transform="matrix(0.35277777,0,0,-0.35277777,136.09124,47.14508)">
      <path
         d="m 0,0 c -0.764,0.728 -1.48,1.033 -2.386,1.033 -1.703,0 -3.148,-1.48 -3.148,-3.23 0,-1.787 1.422,-3.232 3.172,-3.232 0.87,0 1.61,0.318 2.362,1.023 v -1.082 c -0.764,-0.516 -1.504,-0.764 -2.339,-0.764 -2.244,0 -4.076,1.822 -4.076,4.031 0,2.233 1.844,4.076 4.088,4.076 0.882,0 1.528,-0.21 2.327,-0.775 z"
         style="fill:#979899;fill-opacity:1;fill-rule:nonzero;stroke:none"
         id="path362" />
    </g>
    <g
       id="g364"
       transform="matrix(0.35277777,0,0,-0.35277777,136.78336,47.924331)">
      <path
         d="m 0,0 c 0,-1.775 1.434,-3.22 3.195,-3.22 1.763,0 3.197,1.445 3.197,3.22 0,1.797 -1.422,3.242 -3.197,3.242 C 1.422,3.242 0,1.809 0,0 m 7.272,0.012 c 0,-2.221 -1.844,-4.055 -4.065,-4.055 -2.256,0 -4.088,1.811 -4.088,4.043 0,2.232 1.844,4.064 4.088,4.064 2.221,0 4.065,-1.832 4.065,-4.052"
         style="fill:#979899;fill-opacity:1;fill-rule:nonzero;stroke:none"
         id="path366" />
    </g>
    <g
       id="g368"
       transform="matrix(0.35277777,0,0,-0.35277777,140.60948,48.641598)">
      <path
         d="m 0,0 2.221,5.969 h 0.951 l -3.184,-8.295 -3.173,8.295 h 0.964 z"
         style="fill:#979899;fill-opacity:1;fill-rule:nonzero;stroke:none"
         id="path370" />
    </g>
    <g
       id="g372"
       transform="matrix(0.35277777,0,0,-0.35277777,142.42505,46.8219)">
      <path
         d="m 0,0 v -2.338 h 3.09 v -0.81 H 0 v -3.068 h 3.173 v -0.81 H -0.881 V 0.811 H 3.173 V 0 Z"
         style="fill:#979899;fill-opacity:1;fill-rule:nonzero;stroke:none"
         id="path374" />
    </g>
    <g
       id="g380"
       transform="matrix(0.35277777,0,0,-0.35277777,145.75369,46.535974)">
      <path
         d="M 0,0 H 1.011 L 3.008,-3.502 5.029,0 H 6.051 L 3.442,-4.465 v -3.372 h -0.88 v 3.372 z"
         style="fill:#979899;fill-opacity:1;fill-rule:nonzero;stroke:none"
         id="path382" />
    </g>
    <path
       d="m 149.6213,49.300587 h -0.3108 v -2.764719 h 0.3108 z"
       style="fill:#979899;fill-opacity:1;fill-rule:nonzero;stroke:none;stroke-width:0.352778"
       id="path384" />
    <g
       id="g386"
       transform="matrix(0.35277777,0,0,-0.35277777,150.33842,46.420227)">
      <path
         d="m 0,0 6.098,-6.402 v 6.074 h 0.881 v -8.19 L 0.881,-2.126 V -8.165 H 0 Z"
         style="fill:#979899;fill-opacity:1;fill-rule:nonzero;stroke:none"
         id="path388" />
    </g>
    <g
       id="g390"
       transform="matrix(0.35277777,0,0,-0.35277777,155.49056,47.124407)">
      <path
         d="m 0,0 -1.34,-3.138 h 2.644 z m -1.704,-3.948 -0.94,-2.221 H -3.596 L 0.012,2.044 3.536,-6.169 H 2.573 l -0.928,2.221 z"
         style="fill:#979899;fill-opacity:1;fill-rule:nonzero;stroke:none"
         id="path392" />
    </g>
    <g
       id="g394"
       transform="matrix(0.35277777,0,0,-0.35277777,157.43465,49.014732)">
      <path
         d="M 0,0 H 2.15 V -0.811 H -0.881 V 7.026 H 0 Z"
         style="fill:#979899;fill-opacity:1;fill-rule:nonzero;stroke:none"
         id="path396" />
    </g>
    <g
       id="g398"
       transform="matrix(0.35277777,0,0,-0.35277777,158.91844,49.014732)">
      <path
         d="M 0,0 H 2.15 V -0.811 H -0.881 V 7.026 H 0 Z"
         style="fill:#979899;fill-opacity:1;fill-rule:nonzero;stroke:none"
         id="path400" />
    </g>
    <g
       id="g402"
       transform="matrix(0.35277777,0,0,-0.35277777,161.43854,46.8219)">
      <path
         d="m 0,0 v -2.338 h 2.597 v -0.81 H 0 v -3.878 h -0.881 v 7.837 h 3.56 L 2.679,0 Z"
         style="fill:#979899;fill-opacity:1;fill-rule:nonzero;stroke:none"
         id="path404" />
    </g>
    <path
       d="m 163.23358,49.300587 h -0.3108 v -2.764719 h 0.3108 z"
       style="fill:#979899;fill-opacity:1;fill-rule:nonzero;stroke:none;stroke-width:0.352778"
       id="path406" />
    <g
       id="g408"
       transform="matrix(0.35277777,0,0,-0.35277777,164.26143,46.8219)">
      <path
         d="m 0,0 v -2.338 h 3.09 v -0.81 H 0 v -3.068 h 3.173 v -0.81 H -0.881 V 0.811 H 3.173 V 0 Z"
         style="fill:#979899;fill-opacity:1;fill-rule:nonzero;stroke:none"
         id="path410" />
    </g>
    <g
       id="g412"
       transform="matrix(0.35277777,0,0,-0.35277777,166.25925,49.014732)">
      <path
         d="M 0,0 H 2.15 V -0.811 H -0.881 V 7.026 H 0 Z"
         style="fill:#979899;fill-opacity:1;fill-rule:nonzero;stroke:none"
         id="path414" />
    </g>
    <g
       id="g416"
       transform="matrix(0.35277777,0,0,-0.35277777,168.01245,49.014732)">
      <path
         d="M 0,0 C 1.997,0 3.313,1.233 3.313,3.103 3.313,4.993 2.009,6.216 0,6.216 H -0.764 V 0 Z m -1.645,7.026 h 1.61 c 1.268,0 2.127,-0.27 2.879,-0.904 C 3.725,5.394 4.194,4.335 4.194,3.091 4.194,1.88 3.713,0.835 2.82,0.095 2.045,-0.552 1.222,-0.811 -0.047,-0.811 h -1.598 z"
         style="fill:#979899;fill-opacity:1;fill-rule:nonzero;stroke:none"
         id="path418" />
    </g>
    <g
       id="g420"
       transform="matrix(0.35277777,0,0,-0.35277777,171.28704,47.078934)">
      <path
         d="m 0,0 c -0.399,0.635 -0.74,0.846 -1.352,0.846 -0.728,0 -1.292,-0.518 -1.292,-1.21 0,-0.341 0.165,-0.623 0.494,-0.847 0.188,-0.117 0.387,-0.234 0.611,-0.328 l 0.247,-0.117 0.246,-0.107 0.247,-0.105 c 1.257,-0.552 1.775,-1.175 1.775,-2.151 0,-1.35 -1.081,-2.42 -2.468,-2.42 -1.257,0 -2.127,0.728 -2.432,2.021 l 0.846,0.234 c 0.211,-0.939 0.752,-1.432 1.574,-1.432 0.904,0 1.598,0.669 1.598,1.539 0,0.481 -0.211,0.846 -0.646,1.116 -0.2,0.129 -0.424,0.246 -0.681,0.353 l -0.236,0.117 -0.235,0.106 -0.234,0.106 c -1.128,0.505 -1.586,1.056 -1.586,1.938 0,1.14 0.951,2.009 2.196,2.009 0.882,0 1.552,-0.411 2.021,-1.222 z"
         style="fill:#979899;fill-opacity:1;fill-rule:nonzero;stroke:none"
         id="path422" />
    </g>
    <g
       id="g424"
       transform="matrix(0.35277777,0,0,-0.35277777,65.361713,38.497544)">
      <path
         d="M 0,0 C -0.006,0.022 -0.011,0.044 -0.017,0.066 -0.011,0.044 -0.006,0.021 0,0 m 5.787,5.562 c 2.205,0 4,-1.794 4,-4 0,-2.207 -1.795,-4 -4,-4 -2.205,0 -4,1.793 -4,4 0,2.206 1.795,4 4,4 m -22.923,-34.126 c -0.355,-1.066 -1.554,-1.683 -2.635,-1.322 -0.528,0.175 -0.957,0.545 -1.207,1.042 -0.249,0.497 -0.291,1.062 -0.116,1.588 0.284,0.857 1.08,1.432 1.98,1.432 0.221,0 0.442,-0.036 0.654,-0.107 1.09,-0.362 1.684,-1.545 1.324,-2.633 m 27.062,18.539 c 0.029,0.237 0.08,0.475 0.158,0.712 -0.078,-0.236 -0.125,-0.474 -0.158,-0.712 m 2.056,0.084 c 0.284,0.855 1.08,1.429 1.98,1.429 0.222,0 0.442,-0.036 0.654,-0.106 1.091,-0.362 1.685,-1.543 1.323,-2.633 -0.352,-1.065 -1.552,-1.679 -2.632,-1.322 -1.09,0.36 -1.684,1.542 -1.325,2.632 m -20.783,-4.948 c 0.543,1.641 2.068,2.743 3.794,2.743 0.427,0 0.851,-0.069 1.261,-0.205 2.092,-0.694 3.229,-2.962 2.537,-5.054 -0.544,-1.641 -2.07,-2.743 -3.796,-2.743 -0.426,0 -0.849,0.068 -1.259,0.204 -2.092,0.694 -3.23,2.962 -2.537,5.055 m 0.069,-14.76 0.079,0.032 z m 3.646,-1.694 c 2.092,-0.694 3.232,-2.962 2.539,-5.054 -0.544,-1.641 -2.07,-2.744 -3.797,-2.744 -0.427,0 -0.849,0.069 -1.26,0.204 -1.013,0.336 -1.835,1.048 -2.315,2.003 -0.479,0.955 -0.559,2.038 -0.222,3.053 0.543,1.641 2.068,2.743 3.794,2.743 0.427,0 0.851,-0.069 1.261,-0.205 m -25.869,8.264 c -0.544,-1.64 -2.069,-2.742 -3.796,-2.742 -0.427,0 -0.851,0.069 -1.26,0.205 -2.094,0.694 -3.234,2.962 -2.54,5.054 0.545,1.64 2.071,2.743 3.797,2.743 0.426,0 0.85,-0.07 1.26,-0.205 1.015,-0.336 1.837,-1.046 2.316,-2.001 0.48,-0.954 0.558,-2.039 0.223,-3.054 m -7.395,15.711 c -1.148,0 -2.082,0.933 -2.082,2.082 0,1.149 0.934,2.084 2.082,2.084 1.149,0 2.084,-0.935 2.084,-2.084 0,-1.149 -0.935,-2.082 -2.084,-2.082 m -7.211,15.143 c -0.01,-0.021 -0.02,-0.043 -0.03,-0.063 0.01,0.02 0.02,0.042 0.03,0.063 m -5.378,-1.358 c -2.206,0 -4,1.794 -4,4 0,2.205 1.794,3.999 4,3.999 2.205,0 4,-1.794 4,-3.999 0,-2.206 -1.795,-4 -4,-4 M -22.601,5.71 c -0.003,-0.001 -0.006,-0.002 -0.01,-0.003 0.004,0.001 0.007,0.002 0.01,0.003 m -3.305,3.877 c 0,1.149 0.935,2.084 2.084,2.084 1.149,0 2.084,-0.935 2.084,-2.084 0,-1.149 -0.935,-2.084 -2.084,-2.084 -1.149,0 -2.084,0.935 -2.084,2.084 m 9.685,19.923 c 0,1.149 0.936,2.084 2.084,2.084 1.149,0 2.084,-0.935 2.084,-2.084 0,-1.149 -0.935,-2.084 -2.084,-2.084 -1.148,0 -2.084,0.935 -2.084,2.084 m 8.256,-16.593 c -0.011,0.006 -0.021,0.012 -0.032,0.019 0.011,-0.007 0.021,-0.013 0.032,-0.019 m -1.407,5.782 c -0.124,2.753 2.017,5.096 4.77,5.221 0.078,0.003 0.155,0.005 0.231,0.005 2.678,0 4.869,-2.097 4.989,-4.775 0.125,-2.754 -2.014,-5.095 -4.768,-5.22 -2.77,-0.136 -5.097,2.015 -5.222,4.769 M 9.387,43.355 c 1.116,0 2.029,-0.875 2.079,-1.99 0.052,-1.148 -0.841,-2.124 -1.987,-2.176 L 9.381,39.188 c -1.114,0 -2.027,0.874 -2.079,1.989 -0.052,1.147 0.841,2.124 2.085,2.178 m 1.204,-27.427 c -0.017,0.023 -0.034,0.045 -0.05,0.067 0.016,-0.022 0.033,-0.044 0.05,-0.067 m 4.837,7.535 c 2.205,0 4,-1.794 4,-4 0,-2.205 -1.795,-4 -4,-4 -2.205,0 -4,1.795 -4,4 0,2.206 1.795,4 4,4 M -12.068,-2.546 c -0.137,0.352 -0.299,0.69 -0.485,1.014 L 11.035,15.39 c 1.097,-1.182 2.657,-1.926 4.393,-1.926 3.308,0 6,2.69 6,5.999 0,3.308 -2.692,6 -6,6 -3.309,0 -6,-2.692 -6,-6 0,-1.035 0.263,-2.01 0.727,-2.86 -10e-4,0 -10e-4,10e-4 -10e-4,10e-4 L -13.428,-0.314 c -0.335,0.379 -0.707,0.724 -1.111,1.03 l 7.221,11.859 c -0.001,0.001 -0.002,0.001 -0.004,0.002 0.895,-0.415 1.888,-0.652 2.939,-0.652 0.108,0 0.215,0.002 0.322,0.007 3.858,0.175 6.852,3.455 6.677,7.308 -0.095,2.136 -1.132,4.008 -2.699,5.225 0.001,-0.001 0.001,-0.002 0.003,-0.002 L 7.849,37.485 C 8.322,37.293 8.84,37.188 9.381,37.188 l 0.187,0.003 c 2.248,0.102 3.996,2.014 3.896,4.264 -0.099,2.187 -1.889,3.9 -4.077,3.9 L 9.201,45.351 C 6.951,45.248 5.203,43.336 5.304,41.086 5.354,39.98 5.84,39 6.586,38.297 L -1.357,25.25 c -1.002,0.477 -2.136,0.724 -3.334,0.668 -3.856,-0.176 -6.852,-3.454 -6.679,-7.31 0.099,-2.165 1.167,-4.053 2.772,-5.267 -0.003,0.002 -0.006,0.003 -0.007,0.005 L -15.82,1.495 c -0.457,0.22 -0.939,0.393 -1.442,0.516 l 3.381,23.441 c -0.086,-0.005 -0.168,-0.026 -0.256,-0.026 -0.228,0 -0.449,0.027 -0.666,0.068 0.218,-0.037 0.438,-0.068 0.666,-0.068 2.252,0 4.084,1.832 4.084,4.084 0,2.252 -1.832,4.084 -4.084,4.084 -2.252,0 -4.084,-1.832 -4.084,-4.084 0,-1.82 1.204,-3.346 2.852,-3.873 L -18.747,2.22 c -0.103,0.004 -0.203,0.015 -0.306,0.015 -0.549,0 -1.082,-0.062 -1.597,-0.174 l -1.268,3.935 h -0.001 c 1.291,0.687 2.181,2.03 2.181,3.591 0,2.252 -1.832,4.084 -4.084,4.084 -2.252,0 -4.084,-1.832 -4.084,-4.084 0,-2.252 1.832,-4.084 4.084,-4.084 0.161,0 0.315,0.029 0.471,0.048 l 1.274,-3.955 c -1.391,-0.615 -2.557,-1.641 -3.35,-2.923 l -19.857,9.76 c 0.219,0.622 0.345,1.288 0.345,1.984 0,3.309 -2.692,5.999 -6,5.999 -3.309,0 -6,-2.69 -6,-5.999 0,-3.309 2.691,-6 6,-6 2.079,0 3.913,1.063 4.989,2.674 l -10e-4,-0.002 19.867,-9.765 c -0.214,-0.58 -0.366,-1.19 -0.43,-1.828 l -7.834,0.034 c 0.054,-0.263 0.082,-0.537 0.082,-0.816 0,2.252 -1.832,4.084 -4.084,4.084 -2.251,0 -4.082,-1.832 -4.082,-4.084 0,-2.251 1.831,-4.082 4.082,-4.082 2.018,0 3.687,1.473 4.015,3.398 l 7.819,-0.034 c 0.157,-1.595 0.816,-3.039 1.813,-4.183 l -6.446,-6.864 c 0,0 0.001,-0.001 0.001,-0.001 -0.517,0.39 -1.084,0.717 -1.717,0.926 -0.613,0.203 -1.249,0.307 -1.889,0.307 -2.589,0 -4.877,-1.654 -5.695,-4.114 -0.505,-1.52 -0.386,-3.147 0.334,-4.579 0.719,-1.432 1.953,-2.498 3.474,-3.003 0.613,-0.203 1.249,-0.306 1.89,-0.306 2.59,0 4.878,1.653 5.694,4.113 0.504,1.521 0.386,3.148 -0.333,4.58 -0.317,0.631 -0.748,1.176 -1.245,1.648 0.205,-0.187 0.4,-0.385 0.573,-0.604 l 6.453,6.871 c 1.074,-0.823 2.371,-1.369 3.791,-1.513 l 0.006,-11.162 c -1.465,-0.253 -2.699,-1.288 -3.18,-2.738 -0.343,-1.035 -0.262,-2.142 0.228,-3.116 0.489,-0.974 1.329,-1.699 2.363,-2.042 0.417,-0.139 0.85,-0.209 1.287,-0.209 1.761,0 3.319,1.124 3.876,2.799 0.707,2.136 -0.455,4.452 -2.593,5.162 -0.157,0.053 -0.319,0.086 -0.481,0.118 l -0.006,11.186 c 0.508,0.05 1.002,0.15 1.476,0.295 l 7.473,-17.54 c -1.229,-0.719 -2.199,-1.857 -2.67,-3.279 -0.506,-1.52 -0.387,-3.146 0.332,-4.58 0.721,-1.432 1.953,-2.498 3.475,-3.003 0.612,-0.203 1.248,-0.306 1.888,-0.306 2.59,0 4.879,1.654 5.696,4.115 1.039,3.139 -0.67,6.541 -3.809,7.582 -0.613,0.203 -1.249,0.306 -1.89,0.306 -0.568,0 -1.118,-0.092 -1.644,-0.243 l -7.47,17.531 c 0.668,0.366 1.272,0.832 1.797,1.375 l 3.461,-2.702 c 0.002,10e-4 0.002,0.003 0.003,0.004 -0.196,-0.344 -0.371,-0.701 -0.499,-1.088 -1.041,-3.139 0.666,-6.541 3.806,-7.582 0.613,-0.203 1.248,-0.305 1.888,-0.305 2.59,0 4.878,1.653 5.694,4.114 1.04,3.139 -0.668,6.541 -3.806,7.582 -0.613,0.203 -1.249,0.306 -1.89,0.306 -1.675,0 -3.214,-0.697 -4.319,-1.849 0.007,0.007 0.012,0.015 0.018,0.021 l -3.428,2.676 c 0.406,0.635 0.716,1.335 0.918,2.082 l 21.713,-3.498 v 0.006 c 0.049,-1.669 1.111,-3.21 2.783,-3.764 0.417,-0.137 0.849,-0.208 1.285,-0.208 1.764,0 3.32,1.125 3.875,2.8 0.707,2.136 -0.455,4.45 -2.592,5.16 -0.416,0.138 -0.849,0.208 -1.284,0.208 -1.733,0 -3.263,-1.09 -3.844,-2.718 l -21.694,3.494 c 0.01,0.157 0.023,0.312 0.023,0.471 0,0.435 -0.045,0.858 -0.115,1.273 l 11.893,3.314 c -0.001,0.002 -0.002,0.005 -0.002,0.007 0.887,-2.205 3.045,-3.767 5.564,-3.767 3.309,0 6,2.691 6,6 0,3.308 -2.691,6 -6,6 -3.308,0 -6,-2.692 -6,-6 0,-0.269 0.024,-0.531 0.059,-0.791 0,0.001 -0.001,0.002 -0.001,0.003 z"
         style="fill:#36236a;fill-opacity:1;fill-rule:nonzero;stroke:none"
         id="path426" />
    </g>
    <path
       d="m 144.6175,47.816877 c 0.39793,0 0.60925,-0.178506 0.60925,-0.518231 0,-0.310797 -0.21555,-0.476602 -0.62195,-0.476602 h -0.18239 v 0.994833 z m 1.09432,1.483783 h -0.37748 l -0.8329,-1.21038 h -0.079 v 1.21038 h -0.31079 v -2.764719 h 0.44767 c 0.31503,0 0.50588,0.04127 0.66322,0.149578 0.18627,0.128058 0.30657,0.364419 0.30657,0.613127 0,0.431095 -0.26952,0.725664 -0.69639,0.766939 z"
       style="fill:#979899;fill-opacity:1;fill-rule:nonzero;stroke:none;stroke-width:0.352778"
       id="path378" />
  </g>
</svg>
